<svg id="Layer_1" data-name="Layer 1" xmlns="http://www.w3.org/2000/svg" xmlns:xlink="http://www.w3.org/1999/xlink" viewBox="0 0 1024 1024"><defs><style>.cls-1{fill:#020716;}.cls-2{fill:url(#linear-gradient);}.cls-3{fill:url(#linear-gradient-2);}.cls-4{fill:url(#linear-gradient-3);}.cls-5{fill:#312783;}.cls-6{fill:url(#linear-gradient-4);}</style><linearGradient id="linear-gradient" x1="268.06" y1="675.08" x2="373.36" y2="486.23" gradientUnits="userSpaceOnUse"><stop offset="0" stop-color="#8338ec"/><stop offset="1" stop-color="#3a86ff"/></linearGradient><linearGradient id="linear-gradient-2" x1="517.16" y1="663.43" x2="723.17" y2="294.9" xlink:href="#linear-gradient"/><linearGradient id="linear-gradient-3" x1="771.35" y1="687.96" x2="656.9" y2="508.27" gradientUnits="userSpaceOnUse"><stop offset="0" stop-color="#8338ec"/><stop offset="1" stop-color="#ff006e"/></linearGradient><linearGradient id="linear-gradient-4" x1="337.52" y1="429.38" x2="560.7" y2="696.34" xlink:href="#linear-gradient-3"/></defs><rect class="cls-1" width="1024" height="1024" rx="222.62"/><path class="cls-2" d="M292.85,527.31l-.06.05L213.13,666.62H330.84l60.67-106S345.47,473,292.85,527.31Z"/><path class="cls-3" d="M691.3,457.73l34.19-59.65c19.51-34.08-5.1-76.49-44.4-76.49a51.16,51.16,0,0,0-44.34,25.69l-4.31,7.54L573.59,457.73,512,565.41c10,16.74,50.37,76.35,96.67,36.89l23.82-41.65Z"/><polygon class="cls-4" points="708.23 487.28 649.37 590.18 693.07 666.64 810.87 666.64 708.23 487.28"/><path class="cls-5" d="M509.56,561.23h0l.09.15Z"/><path class="cls-5" d="M512,565.41l-.06-.11.06.11Z"/><path class="cls-6" d="M512,565.41h0l-.06-.11-2.24-3.92-.09-.15-59.19-103.5c-26-45.53-91.63-45.53-117.71,0l-10.27,18-29.54,51.6c52.62-54.27,98.66,33.34,98.66,33.34l60.68,106,.9,1.65c26.09,45.53,91.75,45.53,117.77-.06l1-1.59,7.6-13.29,29.19-51C562.32,641.76,522,582.15,512,565.41Z"/></svg>