<svg id="Layer_1" data-name="Layer 1" xmlns="http://www.w3.org/2000/svg" xmlns:xlink="http://www.w3.org/1999/xlink" viewBox="0 0 385.43 293.11"><defs><style>.cls-1{fill:url(#linear-gradient);}.cls-2{fill:url(#linear-gradient-2);}.cls-3{fill:url(#linear-gradient-3);}.cls-4{fill:#312783;}.cls-5{fill:url(#linear-gradient-4);}</style><linearGradient id="linear-gradient" x1="54.18" y1="217.59" x2="113.98" y2="110.35" gradientUnits="userSpaceOnUse"><stop offset="0" stop-color="#8338ec"/><stop offset="1" stop-color="#3a86ff"/></linearGradient><linearGradient id="linear-gradient-2" x1="195.64" y1="210.98" x2="312.64" y2="1.69" xlink:href="#linear-gradient"/><linearGradient id="linear-gradient-3" x1="340" y1="224.91" x2="275" y2="122.87" gradientUnits="userSpaceOnUse"><stop offset="0" stop-color="#8338ec"/><stop offset="1" stop-color="#ff006e"/></linearGradient><linearGradient id="linear-gradient-4" x1="93.63" y1="78.07" x2="220.37" y2="229.67" xlink:href="#linear-gradient-3"/></defs><path class="cls-1" d="M68.26,133.68l0,0L23,212.79H89.84l34.45-60.18S98.14,102.86,68.26,133.68Z"/><path class="cls-2" d="M294.54,94.17,314,60.29a29,29,0,0,0-50.4-28.85l-2.45,4.28L227.69,94.17l-35,61.14c5.68,9.51,28.6,43.37,54.89,21l13.53-23.66Z"/><polygon class="cls-3" points="304.15 110.95 270.73 169.38 295.54 212.8 362.44 212.8 304.15 110.95"/><path class="cls-4" d="M191.33,152.94h0l0,.09Z"/><path class="cls-4" d="M192.69,155.31l0-.06,0,.07Z"/><path class="cls-5" d="M192.69,155.31h0l0-.07L191.38,153l0-.09L157.72,94.17c-14.78-25.86-52-25.86-66.85,0L85,104.37,68.26,133.68c29.88-30.82,56,18.93,56,18.93l34.46,60.18.51.94c14.81,25.86,52.1,25.86,66.88,0l.55-.91,4.32-7.54,16.57-29C221.29,198.68,198.37,164.82,192.69,155.31Z"/></svg>